<?xml version="1.0" encoding="utf-8"?>
<!-- Generator: Adobe Illustrator 16.0.0, SVG Export Plug-In . SVG Version: 6.00 Build 0)  -->
<!DOCTYPE svg PUBLIC "-//W3C//DTD SVG 1.1//EN" "http://www.w3.org/Graphics/SVG/1.1/DTD/svg11.dtd">
<svg version="1.1" id="Layer_1" xmlns="http://www.w3.org/2000/svg" xmlns:xlink="http://www.w3.org/1999/xlink" x="0px" y="0px"
	 width="258.889px" height="258.89px" viewBox="0 0 258.889 258.89" enable-background="new 0 0 258.889 258.89"
	 xml:space="preserve">
<circle fill="#FF4A4A" cx="129.444" cy="129.444" r="129.444"/>
<path fill="#FFFFFF" d="M58.793,160.932h-3.96c-3.397-4.34-6.068-9.077-8.013-14.214c-1.944-5.138-2.916-10.224-2.916-15.258
	c0-5.71,1.033-11.011,3.101-15.902c2.066-4.892,4.676-9.425,7.828-13.601h3.96c-3.643,5.977-6.083,11.216-7.321,15.719
	s-1.857,9.077-1.857,13.723C49.614,141.284,52.674,151.128,58.793,160.932z"/>
<path fill="#FFFFFF" d="M84.12,102.142c2.333,0,4.328,0.834,5.986,2.502s2.486,3.669,2.486,6.002c0,2.354-0.834,4.364-2.502,6.032
	s-3.658,2.502-5.971,2.502c-2.333,0-4.334-0.834-6.002-2.502s-2.502-3.679-2.502-6.032s0.829-4.359,2.486-6.018
	C79.761,102.971,81.767,102.142,84.12,102.142z M84.12,115.865c1.412,0,2.625-0.512,3.638-1.535c1.014-1.023,1.52-2.251,1.52-3.684
	s-0.506-2.65-1.52-3.653c-1.013-1.003-2.226-1.505-3.638-1.505c-1.433,0-2.65,0.502-3.653,1.505s-1.504,2.221-1.504,3.653
	s0.501,2.66,1.504,3.684S82.688,115.865,84.12,115.865z"/>
<path fill="#FFFFFF" d="M153.87,154.169c-4.298,5.73-11.195,8.596-20.691,8.596c-9.477,0-16.363-2.865-20.661-8.596h1.289
	c1.76,1.515,4.707,2.712,8.842,3.592c3.479,0.736,6.989,1.105,10.53,1.105c3.581,0,7.102-0.369,10.561-1.105
	c4.113-0.88,7.061-2.077,8.841-3.592H153.87z"/>
<path fill="#FFFFFF" d="M131.551,102.725v10.101c0,2.722,0.185,4.728,0.553,6.017c0.369,1.29,1.382,3.122,3.04,5.495
	c2.435,3.5,4.031,6.125,4.789,7.875c0.757,1.75,1.136,3.658,1.136,5.726c0,3.069-1.213,5.598-3.638,7.583
	c-2.426,1.985-5.553,2.978-9.379,2.978c-5.833,0-10.131-2.875-12.895-8.627l4.82-2.026c1.801,4.073,4.513,6.109,8.136,6.109
	c2.292,0,4.077-0.588,5.356-1.765s1.919-2.728,1.919-4.651c0-2.824-1.423-6.304-4.268-10.438c-2.251-3.274-3.663-5.669-4.236-7.184
	s-0.859-3.879-0.859-7.092v-10.101H131.551z"/>
<path fill="#FFFFFF" d="M173.364,102.142c2.333,0,4.328,0.834,5.986,2.502s2.486,3.669,2.486,6.002c0,2.354-0.834,4.364-2.502,6.032
	s-3.658,2.502-5.971,2.502c-2.333,0-4.334-0.834-6.002-2.502s-2.502-3.679-2.502-6.032s0.829-4.359,2.486-6.018
	C169.005,102.971,171.011,102.142,173.364,102.142z M173.364,115.865c1.412,0,2.625-0.512,3.638-1.535
	c1.014-1.023,1.52-2.251,1.52-3.684s-0.506-2.65-1.52-3.653c-1.013-1.003-2.226-1.505-3.638-1.505c-1.433,0-2.65,0.502-3.653,1.505
	s-1.504,2.221-1.504,3.653s0.501,2.66,1.504,3.684S171.932,115.865,173.364,115.865z"/>
<path fill="#FFFFFF" d="M199.152,101.958c3.396,4.34,6.067,9.077,8.013,14.214c1.943,5.138,2.916,10.233,2.916,15.289
	c0,5.689-1.034,10.98-3.101,15.871c-2.067,4.892-4.677,9.425-7.828,13.601h-3.961c3.643-5.977,6.084-11.211,7.322-15.703
	s1.857-9.062,1.857-13.707c0-9.906-3.061-19.761-9.18-29.564H199.152z"/>
</svg>
